<?xml version="1.0" encoding="utf-8"?>
<svg version="1.1" xmlns:xlink="http://www.w3.org/1999/xlink" width="35px" height="29px" xmlns="http://www.w3.org/2000/svg">
  <g transform="matrix(1 0 0 1 -1085 -45 )">
    <path d="M 30.8692893401015 4.5765625  C 32.246192893401 4.42552083333333  33.6230964467005 4.04791666666666  35 3.44375  C 34.0080372250423 4.92395833333333  32.8087986463621 6.18515625  31.4022842639594 7.22734375  C 31.417089678511 7.43880208333333  31.4244923857868 7.75598958333333  31.4244923857868 8.17890625  C 31.4244923857868 10.1424479166667  31.1431895093063 12.1022135416667  30.5805837563452 14.058203125  C 30.0179780033841 16.0141927083333  29.1629653130288 17.8908854166667  28.0155456852792 19.68828125  C 26.8681260575296 21.4856770833333  25.5023265651438 23.075390625  23.9181472081218 24.457421875  C 22.3339678510998 25.839453125  20.4240693739425 26.9420572916667  18.1884517766498 27.765234375  C 15.952834179357 28.5884114583333  13.5617597292724 29  11.0152284263959 29  C 7.00296108291032 29  3.33121827411167 27.9049479166667  0 25.71484375  C 0.518189509306261 25.7752604166667  1.09560067681895 25.80546875  1.73223350253807 25.80546875  C 5.06345177664975 25.80546875  8.03193739424704 24.76328125  10.6376903553299 22.67890625  C 9.08312182741117 22.6486979166667  7.69141285956007 22.1615885416667  6.46256345177665 21.217578125  C 5.23371404399323 20.2735677083333  4.38980541455161 19.0690104166667  3.93083756345178 17.60390625  C 4.41941624365482 17.6794270833333  4.87098138747885 17.7171875  5.28553299492386 17.7171875  C 5.92216582064298 17.7171875  6.55139593908629 17.6341145833333  7.17322335025381 17.46796875  C 5.51501692047377 17.1205729166667  4.14181472081218 16.278515625  3.05361675126904 14.941796875  C 1.96541878172589 13.605078125  1.42131979695431 12.053125  1.42131979695431 10.2859375  L 1.42131979695431 10.1953125  C 2.42808798646362 10.7692708333333  3.50888324873096 11.07890625  4.66370558375635 11.12421875  C 3.68654822335025 10.4596354166667  2.90926395939086 9.59114583333333  2.33185279187817 8.51875  C 1.75444162436548 7.44635416666666  1.46573604060914 6.28333333333333  1.46573604060914 5.0296875  C 1.46573604060914 3.70052083333333  1.7914551607445 2.46953125  2.44289340101523 1.33671875  C 4.23434856175973 3.58723958333333  6.41444585448393 5.38841145833333  8.98318527918782 6.740234375  C 11.5519247038917 8.09205729166667  14.3020304568528 8.84348958333333  17.2335025380711 8.99453125  C 17.1150592216582 8.42057291666666  17.0558375634518 7.86171875  17.0558375634518 7.31796875  C 17.0558375634518 5.29401041666666  17.7553934010152 3.568359375  19.1545050761421 2.141015625  C 20.553616751269 0.713671875000001  22.2451353637902 0  24.2290609137056 0  C 26.3018189509306 0  28.0488578680203 0.770312500000001  29.4701776649746 2.3109375  C 31.0839678510998 1.99375  32.6015228426396 1.4046875  34.0228426395939 0.543750000000001  C 33.4750423011844 2.28072916666666  32.4238578680203 3.625  30.8692893401015 4.5765625  Z " fill-rule="nonzero" fill="#32135b" stroke="none" transform="matrix(1 0 0 1 1085 45 )" />
  </g>
</svg>