<?xml version="1.0" encoding="utf-8"?>
<svg version="1.1" xmlns:xlink="http://www.w3.org/1999/xlink" width="45px" height="26px" xmlns="http://www.w3.org/2000/svg">
  <g transform="matrix(1 0 0 1 -1010 -47 )">
    <path d="M 44.7891723060906 1.65907019143117  L 44.9297241020302 1.89608021877849  C 45.288912024987 2.90732300212701  44.1176470588235 5.23002127013066  41.4159292035398 8.86417502278942  C 41.0411244143675 9.36979641446369  40.5335762623634 10.0413248252811  39.8932847475273 10.8787602552416  C 39.2686100989068 11.6845943482224  38.8391462779802 12.253418413856  38.6048932847475 12.5852324521422  C 38.3706402915148 12.9170464904284  38.1324830817283 13.3081130355515  37.8904216553878 13.7584320875114  C 37.6483602290474 14.2087511394713  37.5546590317543 14.5405651777575  37.6093180635086 14.7538742023701  C 37.6639770952629 14.9671832269827  37.7654867256637 15.2397447584321  37.9138469547111 15.5715587967183  C 38.0622071837585 15.9033728350046  38.3159812597605 16.2430872075357  38.6751691827173 16.5907019143118  C 39.0343571056741 16.9383166210878  39.4794377928162 17.3570343360681  40.0104112441437 17.8468550592525  C 40.0728787090057 17.8784563962321  40.1119208745445 17.9100577332118  40.12753774076 17.9416590701914  C 42.3295158771473 20.0115466423579  43.8209266007288 21.7575205104831  44.6017699115044 23.179580674567  C 44.648620510151 23.2585840170161  44.6993753253514 23.3573381950775  44.7540343571057 23.4758432087511  C 44.80869338886 23.5943482224248  44.8633524206143 23.8037070799149  44.9180114523686 24.1039197812215  C 44.9726704841229 24.4041324825281  44.968766267569 24.6727438468551  44.9062988027069 24.9097538742024  C 44.8438313378449 25.1467639015497  44.648620510151 25.3640230932847  44.3206663196252 25.5615314494075  C 43.9927121290994 25.7590398055302  43.5320145757418 25.8577939835916  42.9385736595523 25.8577939835916  L 36.9416970327954 25.9525979945305  C 36.5668922436231 26.0316013369796  36.1296199895888 25.9920996657551  35.6298802706923 25.8340929808569  C 35.1301405517959 25.6760862959587  34.7241020301926 25.5022789425706  34.4117647058823 25.3126709206928  L 33.943258719417 25.028258887876  C 33.4747527329516 24.6964448495898  32.9281624154086 24.1908234579155  32.3034877667881 23.5113947128532  C 31.6788131181676 22.8319659677909  31.1439354502863 22.2196900638104  30.6988547631442 21.6745670009116  C 30.2537740760021 21.1294439380128  29.7774596564289 20.671224551808  29.2699115044248 20.2999088422972  C 28.7623633524206 19.9285931327864  28.3211868818324 19.8061379519903  27.9463820926601 19.9325432999088  C 27.8995314940135 19.9483439683987  27.8370640291515 19.9759951382558  27.7589796980739 20.0154968094804  C 27.6808953669964 20.0549984807049  27.5481520041645 20.1695533272562  27.3607496095783 20.359161349134  C 27.1733472149922 20.5487693710119  27.0054659031754 20.7818292312367  26.8571056741281 21.0583409298086  C 26.7087454450807 21.3348526283804  26.5760020822488 21.7456700091158  26.4588755856325 22.2907930720146  C 26.3417490890161 22.8359161349134  26.2909942738157 23.448192038894  26.3066111400312 24.1276207839562  C 26.3066111400312 24.3646308113036  26.2792816241541 24.5818900030386  26.2246225923998 24.7793983591613  C 26.1699635606455 24.9769067152841  26.1114003123373 25.123062898815  26.0489328474753 25.2178669097539  L 25.9552316501822 25.3363719234275  C 25.674128058303 25.6365846247341  25.2602811035919 25.8103919781222  24.7136907860489 25.8577939835916  L 22.019781363873 25.8577939835916  C 20.9109838625716 25.9209966575509  19.7709526288391 25.7906411425099  18.5996876626757 25.4667274384686  C 17.4284226965122 25.1428137344272  16.4016137428423 24.724096019447  15.5192608016658 24.2105742935278  C 14.6369078604893 23.6970525676086  13.8326392503904 23.1756305074445  13.1064549713691 22.6463081130356  C 12.3802706923477 22.1169857186266  11.8297761582509 21.6627164995442  11.4549713690786 21.2835004557885  L 10.8693388859969 20.714676390155  C 10.7131702238418 20.5566697052568  10.4984383133785 20.3196596779094  10.225143154607 20.003646308113  C 9.9518479958355 19.6876329383166  9.39354502863092 18.9687025220298  8.55023425299323 17.8468550592525  C 7.70692347735554 16.7250075964752  6.87922956793337 15.5320571254938  6.06715252472671 14.2680036463081  C 5.25507548152004 13.0039501671225  4.29854242581989 11.3369796414464  3.19755335762624 9.26709206927985  C 2.09656428943259 7.19720449711334  1.07756376887038 5.04831358249772  0.140551795939615 2.820419325433  C 0.0468505986465383 2.56760862959587  0 2.35429960498329  0 2.18049225159526  C 0 2.00668489820723  0.0234252993232691 1.88027955028866  0.0702758979698074 1.80127620783956  L 0.163977095262884 1.65907019143117  C 0.398230088495575 1.35885749012458  0.843310775637689 1.20875113947129  1.49921915668922 1.20875113947129  L 7.91775117126497 1.16134913400182  C 8.10515356585112 1.19295047098146  8.28474752732952 1.24430264357338  8.45653305570016 1.31540565177758  C 8.6283185840708 1.38650865998177  8.7532535137949 1.4536615010635  8.83133784487246 1.51686417502279  L 8.94846434148881 1.58796718322698  C 9.19833420093701 1.76177453661501  9.38573659552316 2.01458523245214  9.51067152524727 2.34639927073838  C 9.82300884955752 3.13643269522941  10.1821967725143 3.95411728957763  10.5882352941176 4.79945305378305  C 10.994273815721 5.64478881798845  11.314419573139 6.28866605894865  11.5486725663717 6.73108477666363  L 11.923477355544 7.41841385597083  C 12.3763664757939 8.36645396536007  12.8136387298282 9.18808872683075  13.2352941176471 9.88331814038286  C 13.6569495054659 10.578547553935  14.0356585111921 11.1197204497113  14.3714211348256 11.5068368277119  C 14.7071837584591 11.8939532057125  15.031233732431 12.1981160741416  15.3435710567413 12.4193254329991  C 15.6559083810515 12.6405347918566  15.9213951067153 12.7511394712853  16.1400312337324 12.7511394712853  C 16.3586673607496 12.7511394712853  16.569495054659 12.7116378000608  16.7725143154607 12.6326344576117  C 16.8037480478917 12.6168337891218  16.8427902134305 12.5773321178973  16.889640812077 12.514129443938  C 16.9364914107236 12.4509267699787  17.0301926080167 12.2771194165907  17.1707444039563 11.9927073837739  C 17.3112961998959 11.7082953509572  17.4167100468506 11.3369796414464  17.4869859448204 10.8787602552416  C 17.5572618427902 10.4205408690368  17.6314419573139 9.78061379519903  17.7095262883915 8.95897903372835  C 17.787610619469 8.13734427225767  17.787610619469 7.14980249164388  17.7095262883915 5.99635369188696  C 17.6782925559604 5.36432695229413  17.6080166579906 4.78760255241568  17.498698594482 4.26618049225159  C 17.3893805309735 3.74475843208751  17.2800624674649 3.38134305682163  17.1707444039563 3.17593436645397  L 17.0301926080167 2.89152233363719  C 16.6397709526288 2.35429960498329  15.9760541384695 2.01458523245214  15.0390421655388 1.87237921604376  C 14.8360229047371 1.84077787906411  14.8750650702759 1.65116985718626  15.1561686621551 1.30355515041021  C 15.4060385216033 1.00334244910362  15.7027589796981 0.766332421756303  16.0463300364394 0.592525068368278  C 16.8740239458615 0.181707687632936  18.7402394586153 -0.00790033424491376  21.6449765747007 0.0237010027347297  C 22.9255596043727 0.0395016712245486  23.9796980739198 0.142206016408387  24.807391983342 0.331814038286234  C 25.1197293076523 0.410817380735337  25.3813118167621 0.517471893041626  25.5921395106715 0.651777575205106  C 25.8029672045809 0.786083257368576  25.96304008329 0.975691279246426  26.0723581467985 1.22060164083865  C 26.1816762103071 1.46551200243087  26.2636647579386 1.718322698268  26.3183237896929 1.97903372835005  C 26.3729828214472 2.23974475843209  26.4003123373243 2.59920996657551  26.4003123373243 3.05742935278031  C 26.4003123373243 3.51564873898511  26.3925039042166 3.95016712245518  26.376887038001 4.36098450319052  C 26.3612701717855 4.77180188392586  26.3417490890161 5.32877544819204  26.3183237896929 6.03190519598906  C 26.2948984903696 6.73503494378608  26.283185840708 7.38681251899119  26.283185840708 7.98723792160438  C 26.283185840708 8.1610452749924  26.2753774076002 8.49285931327864  26.2597605413847 8.98268003646308  C 26.2441436751692 9.47250075964752  26.2402394586153 9.85171680340322  26.2480478917231 10.1203281677302  C 26.2558563248308 10.3889395320571  26.283185840708 10.708903068976  26.3300364393545 11.0802187784868  C 26.376887038001 11.4515344879976  26.4666840187402 11.7596475235491  26.5994273815721 12.0045578851413  C 26.732170744404 12.2494682467335  26.9078604893285 12.4430264357338  27.1264966163457 12.5852324521422  C 27.2514315460698 12.6168337891218  27.3841749089016 12.6484351261015  27.5247267048412 12.6800364630811  C 27.6652785007808 12.7116378000608  27.8682977615825 12.6247341233668  28.1337844872462 12.4193254329991  C 28.3992712129099 12.2139167426314  28.6959916710047 11.941355211182  29.0239458615305 11.6016408386509  C 29.3519000520562 11.2619264661197  29.7579385736596 10.7326040717107  30.2420614263404 10.0136736554239  C 30.7261842790213 9.29474323913704  31.2571577303488 8.44545730780917  31.8349817803227 7.46581586144029  C 32.7719937532535 5.82254633849893  33.6074960957834 4.0449711333941  34.3414888079125 2.1330902461258  C 34.4039562727746 1.97508356122759  34.4820406038522 1.83682771194166  34.5757418011452 1.718322698268  C 34.6694429984383 1.59981768459435  34.7553357626236 1.51686417502279  34.8334200937012 1.46946216955333  L 34.9271212909943 1.39835916134913  L 35.0442477876106 1.33910665451231  C 35.0442477876106 1.33910665451231  35.1457574180115 1.31540565177758  35.3487766788131 1.26800364630811  C 35.5517959396148 1.22060164083865  35.7079646017699 1.21665147371619  35.8172826652785 1.25615314494075  L 42.56376887038 1.20875113947129  C 43.172826652785 1.12974779702218  43.6725663716814 1.14949863263446  44.0629880270692 1.26800364630811  C 44.4534096824571 1.38650865998177  44.6954711087975 1.51686417502279  44.7891723060906 1.65907019143117  Z " fill-rule="nonzero" fill="#32135b" stroke="none" transform="matrix(1 0 0 1 1010 47 )" />
  </g>
</svg>