<?xml version="1.0" encoding="utf-8"?>
<svg version="1.1" xmlns:xlink="http://www.w3.org/1999/xlink" width="39px" height="27px" xmlns="http://www.w3.org/2000/svg">
  <g transform="matrix(1 0 0 1 -944 -47 )">
    <path d="M 16 7.69285714285714  L 16 18.4714285714286  L 26 13.1142857142857  L 16 7.69285714285714  Z M 5.8695652173913 0.385714285714284  C 9.5072463768116 0.128571428571428  14.0507246376812 0  19.5 0  C 21.9347826086957 0  24.286231884058 0.032142857142857  26.554347826087 0.0964285714285711  C 28.8224637681159 0.160714285714285  30.4855072463768 0.228571428571427  31.5434782608696 0.299999999999999  L 33.1304347826087 0.385714285714284  C 33.1449275362319 0.385714285714284  33.268115942029 0.39642857142857  33.5 0.417857142857141  C 33.731884057971 0.439285714285716  33.8985507246377 0.460714285714287  34 0.482142857142858  C 34.1014492753623 0.50357142857143  34.2717391304348 0.535714285714287  34.5108695652174 0.57857142857143  C 34.75 0.621428571428572  34.9565217391304 0.678571428571425  35.1304347826087 0.75  C 35.304347826087 0.82142857142857  35.5072463768116 0.91428571428571  35.7391304347826 1.02857142857143  C 35.9710144927536 1.14285714285714  36.195652173913 1.28214285714286  36.4130434782609 1.44642857142857  C 36.6304347826087 1.61071428571428  36.8405797101449 1.8  37.0434782608696 2.01428571428571  C 37.1304347826087 2.1  37.2427536231884 2.23214285714285  37.3804347826087 2.41071428571429  C 37.518115942029 2.58928571428571  37.7282608695652 3.00714285714286  38.0108695652174 3.66428571428571  C 38.2934782608696 4.32142857142857  38.4855072463768 5.04285714285714  38.5869565217391 5.82857142857143  C 38.7028985507246 6.74285714285714  38.7934782608696 7.71785714285714  38.8586956521739 8.75357142857143  C 38.9239130434783 9.78928571428571  38.963768115942 10.6  38.9782608695652 11.1857142857143  L 38.9782608695652 12.0428571428571  L 38.9782608695652 14.9571428571429  C 38.9927536231884 17.0285714285714  38.8623188405797 19.1  38.5869565217391 21.1714285714286  C 38.4855072463768 21.9571428571429  38.304347826087 22.6678571428571  38.0434782608696 23.3035714285714  C 37.7826086956522 23.9392857142857  37.5507246376812 24.3785714285714  37.3478260869565 24.6214285714286  L 37.0434782608696 24.9857142857143  C 36.8405797101449 25.2  36.6304347826087 25.3892857142857  36.4130434782609 25.5535714285714  C 36.195652173913 25.7178571428571  35.9710144927536 25.8535714285714  35.7391304347826 25.9607142857143  C 35.5072463768116 26.0678571428571  35.304347826087 26.1571428571429  35.1304347826087 26.2285714285714  C 34.9565217391304 26.3  34.75 26.3571428571429  34.5108695652174 26.4  C 34.2717391304348 26.4428571428571  34.0978260869565 26.475  33.9891304347826 26.4964285714286  C 33.8804347826087 26.5178571428571  33.713768115942 26.5392857142857  33.4891304347826 26.5607142857143  C 33.2644927536232 26.5821428571429  33.1449275362319 26.5928571428571  33.1304347826087 26.5928571428571  C 29.4927536231884 26.8642857142857  24.9492753623188 27  19.5 27  C 16.5 26.9714285714286  13.8949275362319 26.925  11.6847826086957 26.8607142857143  C 9.47463768115942 26.7964285714286  8.02173913043478 26.7428571428571  7.32608695652174 26.7  L 6.26086956521739 26.6142857142857  L 5.47826086956522 26.5285714285714  C 4.95652173913043 26.4571428571429  4.56159420289855 26.3857142857143  4.29347826086957 26.3142857142857  C 4.02536231884058 26.2428571428571  3.65579710144928 26.0928571428571  3.18478260869565 25.8642857142857  C 2.71376811594203 25.6357142857143  2.30434782608696 25.3428571428571  1.95652173913043 24.9857142857143  C 1.8695652173913 24.9  1.75724637681159 24.7678571428571  1.6195652173913 24.5892857142857  C 1.48188405797101 24.4107142857143  1.27173913043478 23.9928571428571  0.989130434782609 23.3357142857143  C 0.706521739130435 22.6785714285714  0.514492753623188 21.9571428571429  0.41304347826087 21.1714285714286  C 0.297101449275362 20.2571428571429  0.206521739130435 19.2821428571429  0.141304347826087 18.2464285714286  C 0.0760869565217391 17.2107142857143  0.036231884057971 16.4  0.0217391304347826 15.8142857142857  L 0.0217391304347826 14.9571428571429  L 0.0217391304347826 12.0428571428571  C 0.0072463768115942 9.97142857142857  0.13768115942029 7.9  0.41304347826087 5.82857142857143  C 0.514492753623188 5.04285714285714  0.695652173913043 4.33214285714285  0.956521739130435 3.69642857142857  C 1.21739130434783 3.06071428571429  1.44927536231884 2.62142857142857  1.65217391304348 2.37857142857143  L 1.95652173913043 2.01428571428571  C 2.15942028985507 1.8  2.3695652173913 1.61071428571428  2.58695652173913 1.44642857142857  C 2.80434782608696 1.28214285714286  3.02898550724638 1.14285714285714  3.26086956521739 1.02857142857143  C 3.49275362318841 0.91428571428571  3.69565217391304 0.82142857142857  3.8695652173913 0.75  C 4.04347826086957 0.678571428571425  4.25 0.621428571428572  4.48913043478261 0.57857142857143  C 4.72826086956522 0.535714285714287  4.89855072463768 0.50357142857143  5 0.482142857142858  C 5.10144927536232 0.460714285714287  5.26811594202899 0.439285714285716  5.5 0.417857142857141  C 5.73188405797101 0.39642857142857  5.85507246376812 0.385714285714284  5.8695652173913 0.385714285714284  Z " fill-rule="nonzero" fill="#32135b" stroke="none" transform="matrix(1 0 0 1 944 47 )" />
  </g>
</svg>